<svg xmlns="http://www.w3.org/2000/svg" width="266" height="69" fill="none" viewBox="0 0 266 69"><path fill="#fff" d="M0.107032 2H16.607V53.9H44.107V67H0.107032V2ZM47.5812 33.3C47.5812 28.4333 48.4479 24 50.1813 20C51.9813 15.9333 54.4146 12.4667 57.4812 9.6C60.6146 6.73333 64.2479 4.5 68.3813 2.9C72.5813 1.3 77.0813 0.499998 81.8813 0.499998C86.6813 0.499998 91.1479 1.3 95.2813 2.9C99.4813 4.5 103.115 6.73333 106.181 9.6C109.315 12.4667 111.748 15.9333 113.481 20C115.281 24 116.181 28.4333 116.181 33.3V35.7C116.181 40.5667 115.281 45.0333 113.481 49.1C111.748 53.1 109.348 56.5333 106.281 59.4C103.215 62.2667 99.5813 64.5 95.3813 66.1C91.1813 67.7 86.6813 68.5 81.8813 68.5C77.0813 68.5 72.5813 67.7 68.3813 66.1C64.1813 64.5 60.5479 62.2667 57.4812 59.4C54.4146 56.5333 51.9813 53.1 50.1813 49.1C48.4479 45.0333 47.5812 40.5667 47.5812 35.7V33.3ZM64.8813 34.5C64.8813 37.3 65.2479 39.9333 65.9813 42.4C66.7146 44.8 67.8146 46.9333 69.2812 48.8C70.7479 50.6 72.5146 52.0333 74.5813 53.1C76.7146 54.1 79.1146 54.6 81.7813 54.6C84.5146 54.6 86.9479 54.1 89.0813 53.1C91.2146 52.0333 93.0146 50.6 94.4813 48.8C95.9479 46.9333 97.0479 44.8 97.7813 42.4C98.5146 39.9333 98.8813 37.3 98.8813 34.5C98.8813 31.7 98.5146 29.1 97.7813 26.7C97.1146 24.2333 96.0479 22.1 94.5813 20.3C93.1813 18.4333 91.4146 17 89.2813 16C87.1479 14.9333 84.6479 14.4 81.7813 14.4C78.9813 14.4 76.5146 14.9333 74.3813 16C72.2479 17 70.4813 18.4333 69.0813 20.3C67.6813 22.1 66.6146 24.2333 65.8813 26.7C65.2146 29.1 64.8813 31.7 64.8813 34.5ZM188.374 55.3C187.308 56.7 185.874 58.1667 184.074 59.7C182.274 61.2333 180.074 62.6667 177.474 64C174.941 65.2667 172.041 66.3333 168.774 67.2C165.508 68.0667 161.874 68.5 157.874 68.5C152.541 68.5 147.708 67.6667 143.374 66C139.108 64.3333 135.441 62.0333 132.374 59.1C129.308 56.1667 126.941 52.7 125.274 48.7C123.674 44.7 122.874 40.3667 122.874 35.7V33.3C122.874 28.3667 123.741 23.9 125.474 19.9C127.274 15.9 129.708 12.4667 132.774 9.6C135.841 6.66666 139.441 4.43333 143.574 2.9C147.708 1.3 152.174 0.499998 156.974 0.499998C161.108 0.499998 164.874 0.899997 168.274 1.69999C171.674 2.5 174.641 3.73333 177.174 5.39999C179.774 7.06666 181.908 9.23333 183.574 11.9C185.241 14.5 186.341 17.6333 186.874 21.3V22.6H170.774C170.241 19.6667 168.808 17.5333 166.474 16.2C164.141 14.8667 161.141 14.2 157.474 14.2C151.541 14.2 147.108 16.0333 144.174 19.7C141.308 23.3 139.874 28.2667 139.874 34.6C139.874 37.4667 140.308 40.1667 141.174 42.7C142.041 45.1667 143.274 47.3333 144.874 49.2C146.541 51 148.574 52.4333 150.974 53.5C153.441 54.5667 156.241 55.1 159.374 55.1C162.508 55.1 165.241 54.7 167.574 53.9C169.908 53.0333 171.941 51.9333 173.674 50.6V44.2H156.974V31H188.374V55.3ZM196.8 33.3C196.8 28.4333 197.667 24 199.4 20C201.2 15.9333 203.633 12.4667 206.7 9.6C209.833 6.73333 213.467 4.5 217.6 2.9C221.8 1.3 226.3 0.499998 231.1 0.499998C235.9 0.499998 240.367 1.3 244.5 2.9C248.7 4.5 252.333 6.73333 255.4 9.6C258.533 12.4667 260.967 15.9333 262.7 20C264.5 24 265.4 28.4333 265.4 33.3V35.7C265.4 40.5667 264.5 45.0333 262.7 49.1C260.967 53.1 258.567 56.5333 255.5 59.4C252.433 62.2667 248.8 64.5 244.6 66.1C240.4 67.7 235.9 68.5 231.1 68.5C226.3 68.5 221.8 67.7 217.6 66.1C213.4 64.5 209.767 62.2667 206.7 59.4C203.633 56.5333 201.2 53.1 199.4 49.1C197.667 45.0333 196.8 40.5667 196.8 35.7V33.3ZM214.1 34.5C214.1 37.3 214.467 39.9333 215.2 42.4C215.933 44.8 217.033 46.9333 218.5 48.8C219.967 50.6 221.733 52.0333 223.8 53.1C225.933 54.1 228.333 54.6 231 54.6C233.733 54.6 236.167 54.1 238.3 53.1C240.433 52.0333 242.233 50.6 243.7 48.8C245.167 46.9333 246.267 44.8 247 42.4C247.733 39.9333 248.1 37.3 248.1 34.5C248.1 31.7 247.733 29.1 247 26.7C246.333 24.2333 245.267 22.1 243.8 20.3C242.4 18.4333 240.633 17 238.5 16C236.367 14.9333 233.867 14.4 231 14.4C228.2 14.4 225.733 14.9333 223.6 16C221.467 17 219.7 18.4333 218.3 20.3C216.9 22.1 215.833 24.2333 215.1 26.7C214.433 29.1 214.1 31.7 214.1 34.5Z"/></svg>